<svg width="20" height="20" viewBox="0 0 20 20" fill="none" xmlns="http://www.w3.org/2000/svg">
<path d="M3.33333 11.4526L2.5 11.9351C2.3086 12.0456 2.16895 12.2276 2.11175 12.4411C2.05455 12.6546 2.0845 12.882 2.195 13.0734L3.435 15.2217C3.54551 15.4131 3.72752 15.5528 3.941 15.61C4.15448 15.6672 4.38193 15.6372 4.57333 15.5267L5.41667 15.0417C5.66828 14.8966 5.95367 14.8201 6.24417 14.8201C6.53466 14.8201 6.82005 14.8966 7.07167 15.0417L7.08833 15.0509C7.34134 15.1959 7.55161 15.4051 7.69793 15.6573C7.84424 15.9096 7.92142 16.196 7.92167 16.4876V17.5001C7.92167 17.7211 8.00946 17.9331 8.16574 18.0893C8.32202 18.2456 8.53398 18.3334 8.755 18.3334H11.255C11.476 18.3334 11.688 18.2456 11.8443 18.0893C12.0005 17.9331 12.0883 17.7211 12.0883 17.5001V16.4851C12.0883 16.1942 12.1649 15.9085 12.3104 15.6567C12.456 15.4049 12.6654 15.196 12.9175 15.0509L12.935 15.0409C13.1866 14.8957 13.472 14.8193 13.7625 14.8193C14.053 14.8193 14.3384 14.8957 14.59 15.0409L15.43 15.5259C15.6214 15.6364 15.8489 15.6664 16.0623 15.6092C16.2758 15.552 16.4578 15.4123 16.5683 15.2209L17.8083 13.0726C17.8628 12.9776 17.898 12.8729 17.912 12.7644C17.9259 12.6558 17.9184 12.5456 17.8898 12.44C17.8611 12.3343 17.812 12.2354 17.7451 12.1488C17.6782 12.0621 17.5949 11.9895 17.5 11.9351L16.6667 11.4526C16.4128 11.3066 16.2021 11.0962 16.0558 10.8426C15.9094 10.589 15.8327 10.3012 15.8333 10.0084V9.99091C15.8326 9.69821 15.9093 9.41051 16.0556 9.15702C16.202 8.90353 16.4128 8.69327 16.6667 8.54758L17.5 8.06508C17.6914 7.95457 17.8311 7.77256 17.8882 7.55908C17.9454 7.3456 17.9155 7.11815 17.805 6.92675L16.5633 4.77841C16.4528 4.58702 16.2708 4.44736 16.0573 4.39017C15.8439 4.33297 15.6164 4.36291 15.425 4.47341L14.5833 4.95841C14.3317 5.10359 14.0463 5.18001 13.7558 5.18001C13.4653 5.18001 13.18 5.10359 12.9283 4.95841L12.9167 4.95008C12.6637 4.80508 12.4534 4.5959 12.3071 4.34365C12.1608 4.09141 12.0836 3.80502 12.0833 3.51341V2.50008C12.0833 2.27907 11.9955 2.06711 11.8393 1.91083C11.683 1.75455 11.471 1.66675 11.25 1.66675H8.75C8.52899 1.66675 8.31702 1.75455 8.16074 1.91083C8.00446 2.06711 7.91667 2.27907 7.91667 2.50008V3.57841C7.9163 3.84988 7.84449 4.11648 7.70845 4.3514C7.57241 4.58633 7.37693 4.78131 7.14167 4.91675L7.01417 4.99008C6.77937 5.12545 6.51311 5.1967 6.24208 5.1967C5.97106 5.1967 5.7048 5.12545 5.47 4.99008L4.575 4.47341C4.3836 4.36291 4.15614 4.33297 3.94267 4.39017C3.72919 4.44736 3.54718 4.58702 3.43667 4.77841L2.19667 6.92675C2.08602 7.11795 2.05583 7.34525 2.1127 7.5587C2.16958 7.77216 2.30889 7.95429 2.5 8.06508L3.33333 8.54758C3.58716 8.69354 3.79791 8.90397 3.94425 9.15758C4.09058 9.41118 4.16731 9.69895 4.16667 9.99175V10.0092C4.16742 10.302 4.09073 10.5897 3.94437 10.8431C3.79802 11.0966 3.58721 11.3069 3.33333 11.4526ZM10 7.50008C10.4945 7.50008 10.9778 7.6467 11.3889 7.92141C11.8 8.19611 12.1205 8.58656 12.3097 9.04337C12.4989 9.50019 12.5484 10.0029 12.452 10.4878C12.3555 10.9728 12.1174 11.4182 11.7678 11.7678C11.4181 12.1175 10.9727 12.3556 10.4877 12.452C10.0028 12.5485 9.50011 12.499 9.04329 12.3098C8.58648 12.1206 8.19603 11.8001 7.92133 11.389C7.64662 10.9779 7.5 10.4945 7.5 10.0001C7.5 9.33704 7.76339 8.70115 8.23223 8.23231C8.70107 7.76347 9.33696 7.50008 10 7.50008Z" fill="#868686"/>
</svg>
