<svg width="19" height="20" viewBox="0 0 19 20" fill="none" xmlns="http://www.w3.org/2000/svg">
<path d="M9.5 19.5C14.4706 19.5 18 14.7568 18 10C18 5.24324 14.4706 0.5 9.5 0.5C4.52937 0.5 0.5 4.35467 0.5 9.74324C0.5 15.1317 4.52937 19.5 9.5 19.5Z" fill="#E6DBB8"/>
<path d="M18.4266 8.64811C18.3776 6.83311 17.7686 5.07812 16.6826 3.62412C15.5966 2.16912 14.0876 1.08612 12.3626 0.524116C10.5776 -0.0888838 8.65261 -0.165869 6.82461 0.302131C4.99661 0.769131 3.34461 1.76114 2.07261 3.15614C1.29061 4.05114 0.707611 5.10312 0.361611 6.24012C0.016611 7.37812 -0.0833812 8.57611 0.0696188 9.75611C-0.171381 11.7141 0.259611 13.6961 1.29261 15.3781C2.32461 17.0591 3.89762 18.3401 5.75262 19.0101C7.64762 19.7301 9.72061 19.8341 11.6786 19.3081C13.6356 18.7821 15.3776 17.6521 16.6566 16.0801C17.3446 15.1931 17.8466 14.1781 18.1336 13.0931C18.4206 12.0091 18.4866 10.8781 18.3266 9.76713C18.3876 9.39713 18.4206 9.02311 18.4266 8.64811ZM12.2216 18.2371C10.5476 18.8441 8.72762 18.9281 7.00462 18.4781C5.28062 18.0281 3.73462 17.0651 2.57162 15.7161C1.85662 14.8531 1.34762 13.8391 1.08262 12.7511C1.14162 12.8561 1.19961 12.9621 1.26461 13.0671C2.30661 14.6251 3.78361 15.8421 5.51261 16.5681C7.24061 17.2931 9.14362 17.4941 10.9856 17.1461C12.3076 16.9091 13.5616 16.3851 14.6586 15.6101C15.7566 14.8351 16.6706 13.8291 17.3366 12.6631C17.0066 13.9401 16.3676 15.1171 15.4756 16.0891C14.5836 17.0611 13.4656 17.7991 12.2216 18.2371ZM11.9346 15.9861C10.3366 16.5071 8.62262 16.5581 6.99662 16.1341C5.37062 15.7101 3.89961 14.8291 2.75861 13.5951C1.68461 12.3891 1.03061 10.8671 0.897606 9.25813C0.764606 7.64813 1.15861 6.04011 2.02061 4.67411C2.96261 3.28211 4.29061 2.19411 5.84061 1.54511C7.39161 0.895112 9.09762 0.712128 10.7506 1.01713C14.4896 1.67913 17.5006 4.77412 17.5476 8.63612C17.4976 10.2931 16.9286 11.8931 15.9216 13.2091C14.9146 14.5261 13.5206 15.4931 11.9346 15.9741V15.9861Z" fill="#0F1502"/>
<path d="M9.61314 11.1185C9.77214 10.8845 9.96516 10.6145 10.1992 10.3155L10.6151 9.7295C10.7441 9.5485 10.8672 9.37251 10.9792 9.20251C11.2012 8.86251 11.3892 8.5515 11.5352 8.2705C11.6752 8.0065 11.7921 7.7325 11.8871 7.4495C11.9741 7.1925 12.0372 6.9275 12.0742 6.6585C12.1152 6.3885 12.1351 6.1165 12.1331 5.8435C12.1421 5.6605 12.1421 5.4765 12.1331 5.2925C12.1231 5.1275 12.0992 4.9625 12.0632 4.8005C11.9982 4.5315 11.9002 4.2715 11.7702 4.0265C11.6452 3.7975 11.4731 3.5985 11.2661 3.4405C11.0461 3.2885 10.8002 3.17849 10.5392 3.11849C10.2382 3.04249 9.92915 3.0055 9.61915 3.0075C9.45915 2.9975 9.29914 2.9975 9.13914 3.0075C8.99214 3.0075 8.84615 3.04851 8.71115 3.07751C8.21815 3.17751 7.78215 3.4625 7.49215 3.8745C7.34415 4.0915 7.23615 4.3335 7.17615 4.5895C7.10915 4.8695 7.07515 5.1575 7.07615 5.4455V6.2245H9.02215V5.8845C9.02215 5.2345 9.20315 4.91151 9.56115 4.91151C9.64415 4.90851 9.72715 4.9295 9.79815 4.9735C9.86915 5.0175 9.92515 5.0815 9.95915 5.1585C10.0531 5.3925 10.0952 5.64449 10.0822 5.89649C10.0822 5.97849 10.0822 6.05449 10.0822 6.13149V6.34251C10.0602 6.49851 10.0211 6.65151 9.96515 6.79951C9.90615 6.95151 9.84814 7.0985 9.77714 7.2445C9.67914 7.4275 9.57215 7.6055 9.45515 7.7775C9.32015 7.9775 9.18015 8.1885 9.02215 8.4105L8.56515 9.0555C8.42415 9.2495 8.29514 9.4365 8.18414 9.6065C7.95514 9.9525 7.76214 10.2515 7.59814 10.5035C7.45414 10.7385 7.33015 10.9855 7.22915 11.2415C7.15315 11.4315 7.09514 11.6275 7.05314 11.8285C7.01614 12.0335 6.99815 12.2415 7.00015 12.4495V13.6215H12.2742V11.6755H9.34414C9.42314 11.4845 9.51314 11.2995 9.61314 11.1185Z" fill="#0F1502"/>
</svg>
