<svg width="19" height="20" viewBox="0 0 19 20" fill="none" xmlns="http://www.w3.org/2000/svg">
<path d="M9.5 19.5C14.4706 19.5 18 14.7568 18 10C18 5.24324 14.4706 0.5 9.5 0.5C4.52937 0.5 0.5 4.35467 0.5 9.74324C0.5 15.1317 4.52937 19.5 9.5 19.5Z" fill="#E6DBB8"/>
<path d="M18.4266 8.64811C18.3776 6.83311 17.7686 5.07812 16.6826 3.62412C15.5966 2.16912 14.0876 1.08612 12.3626 0.524116C10.5776 -0.0888838 8.65261 -0.165869 6.82461 0.302131C4.99661 0.769131 3.34461 1.76114 2.07261 3.15614C1.29061 4.05114 0.707611 5.10312 0.361611 6.24012C0.016611 7.37812 -0.0833812 8.57611 0.0696188 9.75611C-0.171381 11.7141 0.259611 13.6961 1.29261 15.3781C2.32461 17.0591 3.89762 18.3401 5.75262 19.0101C7.64762 19.7301 9.72061 19.8341 11.6786 19.3081C13.6356 18.7821 15.3776 17.6521 16.6566 16.0801C17.3446 15.1931 17.8466 14.1781 18.1336 13.0931C18.4206 12.0091 18.4866 10.8781 18.3266 9.76713C18.3876 9.39713 18.4206 9.02311 18.4266 8.64811ZM12.2216 18.2371C10.5476 18.8441 8.72762 18.9281 7.00462 18.4781C5.28062 18.0281 3.73462 17.0651 2.57162 15.7161C1.85662 14.8531 1.34762 13.8391 1.08262 12.7511C1.14162 12.8561 1.19961 12.9621 1.26461 13.0671C2.30661 14.6251 3.78361 15.8421 5.51261 16.5681C7.24061 17.2931 9.14362 17.4941 10.9856 17.1461C12.3076 16.9091 13.5616 16.3851 14.6586 15.6101C15.7566 14.8351 16.6706 13.8291 17.3366 12.6631C17.0066 13.9401 16.3676 15.1171 15.4756 16.0891C14.5836 17.0611 13.4656 17.7991 12.2216 18.2371ZM11.9346 15.9861C10.3366 16.5071 8.62262 16.5581 6.99662 16.1341C5.37062 15.7101 3.89961 14.8291 2.75861 13.5951C1.68461 12.3891 1.03061 10.8671 0.897606 9.25813C0.764606 7.64813 1.15861 6.04011 2.02061 4.67411C2.96261 3.28211 4.29061 2.19411 5.84061 1.54511C7.39161 0.895112 9.09762 0.712128 10.7506 1.01713C14.4896 1.67913 17.5006 4.77412 17.5476 8.63612C17.4976 10.2931 16.9286 11.8931 15.9216 13.2091C14.9146 14.5261 13.5206 15.4931 11.9346 15.9741V15.9861Z" fill="#0F1502"/>
<path d="M12.4961 9.9756C12.4401 9.7236 12.3471 9.48061 12.2211 9.25461C12.1041 9.04861 11.9581 8.8616 11.7871 8.6976C11.4411 8.3756 11.0021 8.17061 10.5331 8.11161V7.97161L10.8441 7.88961C10.9461 7.85561 11.0461 7.81361 11.1431 7.76561C11.3271 7.67061 11.4981 7.5526 11.6521 7.4146C11.8031 7.2766 11.9321 7.11661 12.0331 6.93961C12.1411 6.74561 12.2241 6.5386 12.2791 6.3246C12.3391 6.0846 12.3691 5.8386 12.3671 5.5916C12.3701 5.3056 12.3281 5.02061 12.2441 4.74761C12.0951 4.23861 11.7821 3.7936 11.3541 3.4816C10.8971 3.1576 10.3491 2.9886 9.78907 3.0006C9.47907 2.9986 9.17007 3.03661 8.86907 3.11261C8.35707 3.23461 7.90107 3.5256 7.57407 3.9386C7.41707 4.1456 7.30206 4.3796 7.23406 4.6306C7.15106 4.9016 7.11006 5.1846 7.11106 5.4686V6.24761H9.05706V5.87261C9.05706 5.80861 9.05706 5.74961 9.05706 5.69161C9.05106 5.63661 9.05106 5.5816 9.05706 5.5266C9.07906 5.3586 9.14106 5.19761 9.23806 5.05861C9.27906 5.00361 9.33407 4.96161 9.39707 4.93561C9.45407 4.91161 9.51607 4.8996 9.57807 4.8996C9.68307 4.9036 9.78606 4.93561 9.87406 4.99161C9.96306 5.04861 10.0351 5.1286 10.0821 5.2226C10.2201 5.4876 10.2851 5.78461 10.2701 6.08361C10.2711 6.21761 10.2591 6.35061 10.2341 6.48261C10.2141 6.59761 10.1801 6.70961 10.1351 6.81661C10.0961 6.90161 10.0461 6.9826 9.98806 7.0566C9.93206 7.1246 9.86006 7.1776 9.77706 7.2096C9.69606 7.2436 9.60807 7.2616 9.52007 7.2616H8.74008V9.1136H9.65406C9.70306 9.1086 9.75206 9.1086 9.80106 9.1136L9.94106 9.1606C10.0341 9.2036 10.1141 9.2676 10.1761 9.3486C10.2481 9.4286 10.3071 9.51961 10.3521 9.61861C10.4011 9.74661 10.4361 9.8806 10.4571 10.0166C10.4811 10.1696 10.4931 10.3246 10.4921 10.4796C10.4931 10.6386 10.4821 10.7976 10.4571 10.9546C10.4361 11.1076 10.3901 11.2556 10.3221 11.3936C10.2791 11.4766 10.2281 11.5556 10.1701 11.6286C10.1011 11.7146 10.0101 11.7796 9.90608 11.8156C9.82208 11.8476 9.73308 11.8636 9.64308 11.8626C9.60208 11.8686 9.56007 11.8686 9.52007 11.8626L9.40206 11.8336C9.32906 11.8036 9.26307 11.7576 9.20907 11.6986C9.14907 11.6426 9.10206 11.5746 9.06806 11.4996C9.02806 11.4156 8.99608 11.3266 8.97508 11.2356C8.95408 11.1276 8.94406 11.0176 8.94506 10.9076V10.4916H7.00007V11.2656C6.99807 11.5506 7.03907 11.8356 7.12307 12.1096C7.27207 12.6016 7.60007 13.0196 8.04307 13.2816C8.28307 13.4326 8.54608 13.5436 8.82208 13.6096C9.12408 13.6806 9.43207 13.7166 9.74207 13.7146C10.1251 13.7186 10.5051 13.6486 10.8611 13.5096C11.2011 13.3776 11.5091 13.1786 11.7701 12.9236C12.0251 12.6686 12.2241 12.3636 12.3551 12.0266C12.4971 11.6526 12.5671 11.2546 12.5611 10.8546C12.5701 10.7026 12.5701 10.5496 12.5611 10.3976C12.5491 10.2566 12.5251 10.1106 12.4961 9.9756Z" fill="#0F1502"/>
</svg>
