<svg width="17" height="12" viewBox="0 0 17 12" fill="none" xmlns="http://www.w3.org/2000/svg">
<path fill-rule="evenodd" clip-rule="evenodd" d="M5.57877 7.21786e-05C5.60803 0.000114679 5.63733 0.000150032 5.66667 0.000150032C5.69604 0.000150032 5.72532 0.000114679 5.75459 7.21786e-05C6.10281 -0.000359905 6.44508 -0.000785101 6.74994 0.0604857C7.56481 0.224231 8.20118 0.701556 8.41953 1.31266C8.50123 1.54133 8.50066 1.79804 8.50009 2.05922C8.50009 2.08117 8.5 2.10315 8.5 2.12515H16.0556C16.5772 2.12515 17 2.44228 17 2.83348C17 3.22468 16.5772 3.54182 16.0556 3.54182H8.5C8.5 3.56382 8.50009 3.5858 8.50009 3.60775C8.50066 3.86893 8.50123 4.12563 8.41953 4.35434C8.20118 4.96542 7.56481 5.44276 6.74994 5.60646C6.44508 5.66773 6.10281 5.66731 5.75459 5.66688C5.72532 5.66688 5.69604 5.66681 5.66667 5.66681C5.63733 5.66681 5.60803 5.66688 5.57876 5.66688C5.23052 5.66731 4.88825 5.66773 4.58334 5.60646C3.76854 5.44276 3.13211 4.96542 2.91379 4.35434C2.83209 4.12563 2.83265 3.86892 2.83324 3.60774C2.83329 3.5858 2.83333 3.56381 2.83333 3.54182H0.944444C0.422847 3.54182 0 3.22468 0 2.83348C0 2.44228 0.422847 2.12515 0.944444 2.12515H2.83333C2.83333 2.10315 2.83329 2.08117 2.83324 2.05922C2.83265 1.79804 2.83209 1.54133 2.91379 1.31266C3.13211 0.701556 3.76854 0.224231 4.58334 0.0604857C4.88825 -0.000785101 5.23052 -0.000359905 5.57877 7.21786e-05ZM5.19313 1.42061C5.0924 1.42405 5.06869 1.42959 5.07222 1.42888C4.90926 1.46163 4.78198 1.5571 4.73832 1.67932C4.73752 1.6818 4.73132 1.70356 4.72727 1.76999C4.72245 1.84935 4.72222 1.95405 4.72222 2.12515V3.54182C4.72222 3.71291 4.72245 3.81761 4.72727 3.89697C4.73186 3.97252 4.73926 3.99029 4.73832 3.98765C4.78198 4.10986 4.90926 4.20533 5.07222 4.23808C5.06869 4.23737 5.0924 4.24291 5.19313 4.24636C5.29893 4.24998 5.43853 4.25014 5.66667 4.25014C5.89484 4.25014 6.03443 4.24998 6.14021 4.24636C6.24089 4.24291 6.26459 4.23737 6.2611 4.23808C6.42411 4.20533 6.55133 4.10986 6.59506 3.98765C6.59411 3.99029 6.60148 3.97252 6.60601 3.89697C6.61092 3.81761 6.61111 3.71291 6.61111 3.54182V2.12515C6.61111 1.95405 6.61092 1.84935 6.60601 1.76999C6.60148 1.69445 6.59411 1.67667 6.59506 1.67932M5.19313 1.42061C5.29893 1.41699 5.43853 1.41682 5.66667 1.41682L5.19313 1.42061ZM5.66667 1.41682C5.89484 1.41682 6.03443 1.41699 6.14021 1.42061L5.66667 1.41682ZM6.14021 1.42061C6.2288 1.42363 6.25779 1.42828 6.2611 1.42888L6.14021 1.42061ZM11.2454 5.66674C11.2747 5.66681 11.304 5.66681 11.3333 5.66681C11.3627 5.66681 11.392 5.66681 11.4213 5.66674C11.7695 5.66631 12.1117 5.66589 12.4166 5.72716C13.2315 5.89093 13.8678 6.3682 14.0862 6.97935C14.1679 7.208 14.1673 7.4647 14.1668 7.72586C14.1668 7.74782 14.1667 7.76978 14.1667 7.79181H16.0556C16.5772 7.79181 17 8.10893 17 8.50014C17 8.89136 16.5772 9.20848 16.0556 9.20848H14.1667C14.1667 9.23051 14.1668 9.25246 14.1668 9.27442C14.1673 9.53559 14.1679 9.79229 14.0862 10.021C13.8678 10.6321 13.2315 11.1094 12.4166 11.2731C12.1117 11.3344 11.7695 11.334 11.4213 11.3335C11.392 11.3335 11.3627 11.3335 11.3333 11.3335C11.304 11.3335 11.2747 11.3335 11.2454 11.3335C10.8972 11.334 10.5549 11.3344 10.2501 11.2731C9.43519 11.1094 8.79882 10.6321 8.58047 10.021C8.49877 9.79229 8.49934 9.53559 8.49991 9.27442C8.49991 9.25246 8.5 9.23051 8.5 9.20848H0.944444C0.422847 9.20848 0 8.89136 0 8.50014C0 8.10893 0.422847 7.79181 0.944444 7.79181H8.5C8.5 7.76985 8.49991 7.74782 8.49991 7.72586C8.49934 7.4647 8.49877 7.208 8.58047 6.97935C8.79882 6.3682 9.43519 5.89093 10.2501 5.72716C10.5549 5.66589 10.8972 5.66631 11.2454 5.66674ZM10.8598 7.0873C10.7591 7.0907 10.7354 7.09623 10.7389 7.09552C10.5759 7.12831 10.4487 7.2238 10.4049 7.34599C10.4059 7.34336 10.3985 7.36114 10.394 7.43665C10.3891 7.51599 10.3889 7.62075 10.3889 7.79181V9.20848C10.3889 9.37961 10.3891 9.4843 10.394 9.56364C10.3985 9.63921 10.4059 9.65699 10.4049 9.6543C10.4487 9.77656 10.5759 9.87197 10.7389 9.90477C10.7354 9.90406 10.7591 9.90959 10.8598 9.91306C10.9656 9.91667 11.1052 9.91681 11.3333 9.91681C11.5615 9.91681 11.7011 9.91667 11.8069 9.91306C11.9076 9.90959 11.9313 9.90406 11.9278 9.90477C12.0908 9.87197 12.218 9.77656 12.2617 9.6543C12.2608 9.65699 12.2681 9.63921 12.2727 9.56364C12.2776 9.4843 12.2778 9.37961 12.2778 9.20848V7.79181C12.2778 7.62075 12.2776 7.51599 12.2727 7.43665C12.2681 7.36114 12.2608 7.34336 12.2617 7.34599C12.218 7.2238 12.0908 7.12831 11.9278 7.09552C11.9313 7.09623 11.9076 7.0907 11.8069 7.0873C11.7011 7.08362 11.5615 7.08348 11.3333 7.08348C11.1052 7.08348 10.9656 7.08362 10.8598 7.0873Z" fill="#595959"/>
</svg>
