<svg width="30" height="30" viewBox="0 0 30 30" fill="none" xmlns="http://www.w3.org/2000/svg">
<path fill-rule="evenodd" clip-rule="evenodd" d="M11.6687 5.90909V6.56678C8.30645 7.94555 5.9574 12.4742 6.04265 16.399L6.04261 18.5789C4.32141 20.7916 4.42269 24.0909 8.71687 24.0909H11.6687C11.6687 24.995 12.021 25.8621 12.6482 26.5015C13.2754 27.1409 14.126 27.5 15.013 27.5C15.9 27.5 16.7506 27.1409 17.3777 26.5015C18.005 25.8621 18.3572 24.995 18.3572 24.0909H21.3173C25.6033 24.0909 25.6654 20.7848 23.9444 18.572L23.9923 16.402C24.0789 12.4726 21.7254 7.93993 18.3572 6.56311V5.90909C18.3572 5.00495 18.005 4.13783 17.3777 3.4985C16.7506 2.85918 15.9 2.5 15.013 2.5C14.126 2.5 13.2754 2.85918 12.6482 3.4985C12.021 4.13783 11.6687 5.00494 11.6687 5.90909ZM16.1277 5.90909C16.1277 5.93216 16.1271 5.95518 16.1258 5.97808C15.7626 5.93254 15.3927 5.90909 15.0175 5.90909C14.6391 5.90909 14.2662 5.93293 13.9004 5.97919C13.899 5.95593 13.8982 5.93254 13.8982 5.90909C13.8982 5.60771 14.0157 5.31868 14.2247 5.10556C14.4337 4.89245 14.7174 4.77273 15.013 4.77273C15.3086 4.77273 15.5922 4.89245 15.8012 5.10556C16.0104 5.31868 16.1277 5.60771 16.1277 5.90909ZM13.8982 24.0909C13.8982 24.3923 14.0157 24.6814 14.2247 24.8945C14.4337 25.1075 14.7174 25.2273 15.013 25.2273C15.3086 25.2273 15.5922 25.1075 15.8012 24.8945C16.0104 24.6814 16.1277 24.3923 16.1277 24.0909H13.8982ZM21.3173 21.8181C22.2696 21.8181 22.7834 20.6794 22.1636 19.9423C21.8625 19.5841 21.702 19.1285 21.7124 18.6608L21.7633 16.351C21.8484 12.4927 18.8034 8.18181 15.0175 8.18181C11.2325 8.18181 8.18785 12.4913 8.27164 16.3486L8.32185 18.6611C8.33201 19.1288 8.17157 19.5843 7.87049 19.9423C7.25067 20.6794 7.76447 21.8181 8.71687 21.8181H21.3173Z" fill="white" stroke="#C0C0C0" stroke-width="0.00064"/>
</svg>
