<svg width="922" height="922" viewBox="0 0 922 922" fill="none" xmlns="http://www.w3.org/2000/svg">
<g clip-path="url(#clip0_218_247)">
<path d="M919.9 457.395C919.8 444.795 919.2 432.215 918.1 419.655C917.207 409.595 915.987 399.569 914.44 389.575C914.154 387.715 913.85 385.859 913.53 384.005C911.69 373.032 909.447 362.149 906.8 351.355C904.42 341.595 901.717 331.929 898.69 322.355C896.023 313.882 893.11 305.499 889.95 297.205C887.19 289.965 884.247 282.795 881.12 275.695C878.453 269.615 875.643 263.615 872.69 257.695C872.43 257.155 872.17 256.615 871.9 256.085C869.707 251.705 867.45 247.372 865.13 243.085C863.13 239.345 861.06 235.639 858.92 231.965C857.54 229.565 856.14 227.182 854.72 224.815C854.12 223.815 853.52 222.815 852.91 221.815C852.44 221.035 851.91 220.245 851.47 219.465C850.21 217.425 848.93 215.395 847.63 213.375C845.25 209.662 842.817 205.995 840.33 202.375C836.783 197.169 833.117 192.032 829.33 186.965C824.283 180.112 819.06 173.435 813.66 166.935C806.9 158.835 799.873 150.969 792.58 143.335C760.832 110.148 724.31 81.8837 684.22 59.4753C661.566 46.814 637.874 36.1085 613.4 27.4753C606.167 24.9153 598.873 22.5452 591.52 20.3652C585.887 18.6919 580.22 17.1319 574.52 15.6852C569.99 14.5152 565.44 13.4352 560.87 12.4152C558.203 11.8219 555.537 11.2519 552.87 10.7053C551.59 10.4453 550.31 10.1852 549.03 9.94524C545.337 9.22524 541.64 8.55857 537.94 7.94524C534.24 7.33191 530.497 6.76524 526.71 6.24524C522.663 5.65191 518.607 5.12191 514.54 4.65525C509.874 4.10858 505.207 3.63525 500.54 3.23525C494.973 2.75525 489.4 2.37525 483.82 2.09525C477.007 1.75525 470.193 1.56857 463.38 1.53524C455.113 1.47524 446.843 1.64525 438.57 2.04525C428.777 2.50525 419.007 3.27857 409.26 4.36524L408.07 4.49524C397.13 5.72858 386.227 7.36525 375.36 9.40525C362.26 11.8652 349.283 14.8986 336.43 18.5053C321.552 22.669 306.897 27.5887 292.52 33.2452C286.64 35.5586 280.807 37.9919 275.02 40.5452L270.79 42.4453C261.717 46.5653 252.79 50.9852 244.01 55.7052C242.103 56.7252 240.203 57.7619 238.31 58.8153C225.723 65.7952 213.48 73.3586 201.58 81.5053C188.875 90.1925 176.617 99.5143 164.85 109.435C161.75 112.049 158.687 114.699 155.66 117.385C152.633 120.072 149.59 122.855 146.53 125.735C140.217 131.649 134.08 137.739 128.12 144.005C122.413 150.005 116.863 156.159 111.47 162.465C104.49 170.625 97.8001 179.025 91.4001 187.665C88.5801 191.465 85.8268 195.305 83.1401 199.185C77.7335 206.979 72.5668 214.932 67.6401 223.045C65.0601 227.299 62.5568 231.589 60.1301 235.915C58.2601 239.215 56.4501 242.545 54.6701 245.915C50.0035 254.682 45.6435 263.599 41.5901 272.665C36.1901 284.665 31.3135 296.909 26.9601 309.395C22.7401 321.469 19.0368 333.709 15.8501 346.115C15.3901 347.902 14.9401 349.695 14.5001 351.495C11.9668 361.869 9.80346 372.319 8.01013 382.845C5.93013 395.012 4.34346 407.255 3.25013 419.575C2.1568 431.782 1.55346 444.025 1.44013 456.305C1.3268 468.585 1.69014 480.825 2.53014 493.025C2.60014 494.085 2.68013 495.135 2.76013 496.185C3.62013 507.425 4.89014 518.615 6.57014 529.755C8.2968 541.169 10.4468 552.502 13.0201 563.755C15.8601 576.129 19.2101 588.372 23.0701 600.485C26.6701 611.819 30.7135 622.975 35.2001 633.955C35.6401 635.045 36.0901 636.125 36.5501 637.205C41.7368 649.705 47.4901 661.949 53.8101 673.935C54.0901 674.485 54.3801 675.035 54.6701 675.585C61.0301 687.585 67.9135 699.279 75.3201 710.665C80.4401 718.552 85.8001 726.275 91.4001 733.835C94.7935 738.415 98.2735 742.935 101.84 747.395C103.45 749.395 105.07 751.395 106.72 753.395C113.567 761.662 120.7 769.685 128.12 777.465C130.253 779.705 132.407 781.919 134.58 784.105C144.247 793.865 154.337 803.175 164.85 812.035C168.39 815.029 171.977 817.962 175.61 820.835C186.277 829.282 197.277 837.245 208.61 844.725C215.397 849.192 222.303 853.472 229.33 857.565C254.591 872.323 281.21 884.623 308.82 894.295C317.52 897.349 326.303 900.132 335.17 902.645C351.615 907.299 368.308 911.028 385.17 913.815C397.35 915.815 409.59 917.332 421.89 918.365C434.19 919.399 446.433 919.935 458.62 919.975C465.113 920.015 471.607 919.912 478.1 919.665C523.903 917.972 569.193 909.42 612.46 894.295C614.46 893.629 616.43 892.925 618.37 892.185C706.831 859.91 783.216 801.194 837.155 724.009C891.093 646.824 919.972 554.91 919.87 460.745C919.91 459.625 919.9 458.515 919.9 457.395ZM893.66 485.665L893.6 486.665C892.062 512.822 888.17 538.787 881.97 564.245C881.89 564.585 881.81 564.925 881.72 565.245C878.098 579.968 873.688 594.485 868.51 608.735C868.23 609.525 867.94 610.315 867.65 611.105L867.42 611.725C863.5 622.272 859.167 632.642 854.42 642.835C854.07 643.605 853.71 644.365 853.35 645.125C821.631 712.254 773.362 770.214 713.08 813.555C687.817 831.659 660.657 846.956 632.08 859.175L631.08 859.605C606.997 869.844 582.044 877.9 556.52 883.675L555.43 883.915C528.324 889.977 500.703 893.45 472.94 894.285C468.853 894.419 464.757 894.485 460.65 894.485H457.12C454.047 894.485 450.98 894.429 447.92 894.315C439.253 894.069 430.587 893.562 421.92 892.795L420.92 892.705C418.64 892.505 416.367 892.285 414.1 892.045L412.1 891.825C405.967 891.159 399.853 890.352 393.76 889.405C390.913 888.965 388.067 888.495 385.22 887.995L384.22 887.815C372.22 885.689 360.31 883.022 348.49 879.815L347.49 879.545C335.41 876.279 323.5 872.489 311.76 868.175L310.76 867.805C302.993 864.945 295.327 861.855 287.76 858.535L285.49 857.535C281.99 855.995 278.513 854.402 275.06 852.755L274.06 852.275C261.873 846.455 249.967 840.072 238.34 833.125L237.34 832.515C231.613 829.082 225.97 825.512 220.41 821.805L218.9 820.805C213.04 816.879 207.277 812.805 201.61 808.585L200.61 807.835C191.017 800.649 181.73 793.062 172.75 785.075C172.37 784.745 171.99 784.415 171.62 784.075C169.35 782.075 167.11 780.015 164.88 777.945L163.88 777.005L161.46 774.715C152.62 766.289 144.163 757.502 136.09 748.355C135.79 748.025 135.49 747.695 135.2 747.355C132.813 744.642 130.463 741.902 128.15 739.135C127.81 738.735 127.48 738.335 127.15 737.925C120.07 729.419 113.333 720.652 106.94 711.625L106.23 710.625C101.07 703.292 96.1368 695.819 91.4301 688.205L90.4301 686.565C88.0701 682.719 85.7768 678.829 83.5501 674.895L82.9801 673.895C76.3668 662.295 70.3168 650.412 64.8301 638.245L64.3801 637.245C60.9068 629.485 57.6668 621.622 54.6601 613.655C54.3201 612.765 53.9901 611.875 53.6601 610.975C52.4935 607.835 51.3668 604.685 50.2801 601.525L49.9401 600.525C45.9401 588.785 42.4401 576.875 39.4401 564.795C39.3501 564.465 39.2701 564.125 39.1901 563.795C37.9035 558.535 36.7201 553.252 35.6401 547.945C34.4801 542.245 33.4401 536.529 32.5201 530.795C32.4601 530.465 32.4101 530.125 32.3601 529.795C30.4468 517.942 29.0535 506.032 28.1801 494.065C28.1801 493.735 28.1201 493.395 28.1001 493.065C27.2001 480.832 26.8235 468.592 26.9701 456.345C26.9701 456.015 26.9701 455.675 26.9701 455.345C27.1301 443.405 27.7768 431.495 28.9101 419.615C28.9101 419.285 28.9701 418.945 29.0101 418.615C30.1635 406.615 31.8301 394.705 34.0101 382.885C34.0701 382.555 34.1301 382.215 34.2001 381.885C36.3868 369.885 39.0935 357.975 42.3201 346.155C42.4101 345.825 42.5001 345.485 42.6001 345.155C45.7868 333.495 49.4768 321.982 53.6701 310.615C53.8101 310.225 53.9501 309.825 54.1001 309.435C54.2501 309.045 54.3401 308.765 54.4701 308.435C54.5301 308.255 54.6001 308.085 54.6701 307.905C58.2368 298.365 62.1568 288.952 66.4301 279.665C67.5035 277.332 68.5935 274.999 69.7001 272.665C69.8601 272.335 70.0201 271.995 70.1901 271.665C76.1168 259.445 82.6101 247.535 89.6701 235.935C89.8701 235.605 90.0701 235.265 90.2801 234.935L90.4001 234.735C90.7301 234.195 91.0601 233.655 91.4001 233.115C98.6068 221.442 106.36 210.152 114.66 199.245C114.91 198.905 115.17 198.575 115.43 198.245C119.21 193.265 123.107 188.375 127.12 183.575L128.12 182.375C133.807 175.575 139.703 168.959 145.81 162.525C146.13 162.195 146.44 161.855 146.81 161.525C152.337 155.692 158.03 150.025 163.89 144.525C164.22 144.195 164.56 143.885 164.89 143.575C171.457 137.435 178.213 131.502 185.16 125.775L186.39 124.775C191.057 120.942 195.8 117.219 200.62 113.605L201.62 112.845C212.287 104.885 223.287 97.4252 234.62 90.4652L237.31 88.8352L238.31 88.2352L239.09 87.7752L240.78 86.7752C251.613 80.3952 262.697 74.5219 274.03 69.1553C274.36 68.9853 274.7 68.8352 275.03 68.6752C282.31 65.2352 289.68 62.0052 297.14 58.9852L298.74 58.3452C302.74 56.7453 306.74 55.2086 310.74 53.7352L311.74 53.3652C319.64 50.4986 327.617 47.8586 335.67 45.4453L337.14 45.0152C340.567 43.9952 344.01 43.0219 347.47 42.0952L348.47 41.8252C355.93 39.8252 363.44 38.0352 371 36.4552L372.35 36.1752C376.29 35.3552 380.24 34.5919 384.2 33.8853L385.2 33.7052L386.2 33.5353C391.653 32.5886 397.117 31.7419 402.59 30.9952L403.84 30.8352C412.647 29.6552 421.49 28.7586 430.37 28.1452L431.55 28.0653C439.077 27.5452 446.62 27.2119 454.18 27.0653H455.29C461.523 26.9786 467.757 27.0252 473.99 27.2052H475.05C480.15 27.3519 485.247 27.6052 490.34 27.9652L491.34 28.0353L494.21 28.2352C497.5 28.4852 500.8 28.7752 504.08 29.1052L505.08 29.2052C508.77 29.5852 512.47 30.0052 516.14 30.4952L517.14 30.6252C520.54 31.0652 523.937 31.5486 527.33 32.0752L528.33 32.2352C531.71 32.7652 535.07 33.3452 538.43 33.9552L539.43 34.1452C543.07 34.8119 546.697 35.5319 550.31 36.3052L551.31 36.5252C555.564 37.4386 559.8 38.4119 564.02 39.4453L565.08 39.7052C570.413 41.0386 575.747 42.4752 581.08 44.0152L582.23 44.3552C589.23 46.3552 596.16 48.6052 603.03 50.9952L604.34 51.4552C614.094 54.8819 623.713 58.6519 633.2 62.7652L634.92 63.5152C687.592 86.5465 735.111 119.904 774.67 161.615C775.1 162.045 775.51 162.485 775.92 162.915C783.78 171.255 791.307 179.895 798.5 188.835L799.31 189.835C804.47 196.295 809.447 202.899 814.24 209.645C814.46 209.935 814.67 210.235 814.88 210.535C818.48 215.629 821.97 220.802 825.35 226.055C825.54 226.335 825.72 226.625 825.9 226.905C828.487 230.905 831.003 234.975 833.45 239.115C833.62 239.405 833.8 239.695 833.96 239.985C835.293 242.165 836.577 244.362 837.81 246.575L838.35 247.575C838.74 248.255 839.13 248.945 839.51 249.635L840.08 250.635C840.36 251.125 840.63 251.635 840.9 252.115L841.44 253.115C842.407 254.869 843.357 256.629 844.29 258.395L844.77 259.315C846.43 262.469 848.05 265.642 849.63 268.835C849.78 269.135 849.93 269.435 850.07 269.735C852.07 273.735 853.987 277.779 855.82 281.865L856.24 282.775C858.66 288.109 860.974 293.522 863.18 299.015C863.31 299.325 863.43 299.645 863.56 299.955C866.12 306.335 868.523 312.782 870.77 319.295C870.89 319.625 871 319.945 871.11 320.295C873.424 327.009 875.56 333.775 877.52 340.595C877.72 341.275 877.91 341.965 878.11 342.655C878.21 342.995 878.3 343.345 878.4 343.655C880.753 352.029 882.837 360.462 884.65 368.955L884.89 370.065C886.89 379.332 888.557 388.665 889.89 398.065C889.95 398.465 890 398.865 890.06 399.265C891.474 409.219 892.534 419.219 893.24 429.265L893.33 430.555C894.595 448.9 894.705 467.306 893.66 485.665Z" fill="#FFEBC2"/>
<path d="M921.4 459.615C921.36 446.829 920.797 434.065 919.71 421.325C918.69 409.239 917.19 397.202 915.21 385.215C913.39 374.115 911.163 363.092 908.53 352.145C906.15 342.259 903.44 332.455 900.4 322.735C899.94 321.275 899.48 319.805 899 318.345C896.7 311.252 894.223 304.222 891.57 297.255C888.79 289.922 885.817 282.659 882.65 275.465C879.95 269.305 877.107 263.205 874.12 257.165C871.653 252.159 869.09 247.195 866.43 242.275C864.37 238.455 862.257 234.665 860.09 230.905C858.65 228.405 857.187 225.922 855.7 223.455C855.06 222.385 854.41 221.315 853.7 220.255C853.25 219.505 852.79 218.765 852.33 218.025C851.143 216.105 849.94 214.199 848.72 212.305C846.42 208.705 844.063 205.139 841.65 201.605C839.91 199.059 838.147 196.529 836.36 194.015C834.573 191.502 832.753 188.999 830.9 186.505C825.96 179.839 820.837 173.312 815.53 166.925C763.551 104.135 695.875 56.2247 619.38 28.0652C617.1 27.2252 614.82 26.4152 612.53 25.6152C605.397 23.1219 598.213 20.8152 590.98 18.6952C585.433 17.0619 579.863 15.5386 574.27 14.1252C569.79 12.9852 565.287 11.9152 560.76 10.9152C556.853 10.0486 552.927 9.23522 548.98 8.47522C545.3 7.75522 541.607 7.08855 537.9 6.47522C534.193 5.86189 530.447 5.2719 526.66 4.70523C522.58 4.1119 518.497 3.57856 514.41 3.10522C509.71 2.55189 505 2.07856 500.28 1.68523C494.647 1.19189 489.003 0.811893 483.35 0.545226L478.79 0.345229C473.403 0.131895 468.017 0.0185506 462.63 0.00521723C454.25 -0.0347828 445.873 0.155225 437.5 0.575225C427.587 1.06189 417.7 1.87188 407.84 3.00522C396.32 4.33855 384.863 6.08522 373.47 8.24522C360.463 10.7386 347.573 13.7885 334.8 17.3952L334 17.6252C318.897 21.9362 304.027 27.0264 289.45 32.8752C284.617 34.8152 279.813 36.8352 275.04 38.9352C263.127 44.1886 251.46 49.9419 240.04 56.1952C239.47 56.4952 238.91 56.8052 238.35 57.1152C227.977 62.8352 217.833 68.9552 207.92 75.4752C205.813 76.8619 203.713 78.2686 201.62 79.6952C188.919 88.3481 176.66 97.6331 164.89 107.515C157.883 113.375 151.053 119.452 144.4 125.745C138.86 130.965 133.447 136.329 128.16 141.835C121.747 148.502 115.537 155.382 109.53 162.475C107.983 164.295 106.45 166.125 104.93 167.965C100.303 173.592 95.8067 179.325 91.4401 185.165C87.9934 189.772 84.6334 194.439 81.3601 199.165C73.1601 211.045 65.5301 223.289 58.4701 235.895C57.1901 238.165 55.9401 240.435 54.7101 242.725C49.4367 252.505 44.5301 262.472 39.9901 272.625C37.9901 277.045 36.0767 281.499 34.2501 285.985C31.0901 293.699 28.1434 301.489 25.4101 309.355C21.2101 321.435 17.5434 333.675 14.4101 346.075C11.3034 358.209 8.69674 370.452 6.59007 382.805C4.51007 394.972 2.9234 407.215 1.83007 419.535C1.67007 421.235 1.53007 422.945 1.40007 424.645C0.580067 435.165 0.12007 445.705 0.0200695 456.265C-0.0932638 468.519 0.273401 480.759 1.12007 492.985C1.96673 505.212 3.30007 517.455 5.12007 529.715C6.82673 541.129 8.96673 552.462 11.5401 563.715C12.0001 565.715 12.4734 567.715 12.9601 569.715C15.4734 580.035 18.3401 590.262 21.5601 600.395C25.5067 612.822 29.9867 625.062 35.0001 637.115C40.1667 649.609 45.8901 661.852 52.1701 673.845C53.0101 675.465 53.8701 677.075 54.7301 678.685C58.4367 685.599 62.3267 692.409 66.4001 699.115C68.7401 702.962 71.1367 706.782 73.5901 710.575C79.2501 719.335 85.2067 727.892 91.4601 736.245C94.2534 739.972 97.1001 743.659 100 747.305C108.88 758.485 118.273 769.239 128.18 779.565C129.613 781.065 131.06 782.552 132.52 784.025C139.8 791.439 147.33 798.589 155.11 805.475C158.343 808.335 161.61 811.152 164.91 813.925C167.67 816.232 170.453 818.509 173.26 820.755C190.113 834.223 207.886 846.496 226.45 857.485C240.933 866.061 255.879 873.83 271.22 880.755C282.107 885.689 293.18 890.175 304.44 894.215C330.693 903.657 357.751 910.686 385.28 915.215C392.46 916.409 399.667 917.425 406.9 918.265C411.92 918.852 416.953 919.355 422 919.775C434.213 920.795 446.457 921.332 458.73 921.385C490.295 921.53 521.791 918.451 552.73 912.195C598.899 902.834 643.349 886.407 684.51 863.495C766.023 818.086 831.905 749.095 873.51 665.575C894.592 623.178 908.976 577.769 916.15 530.965C919.693 507.689 921.478 484.179 921.49 460.635C921.41 460.365 921.41 459.995 921.4 459.615ZM897.53 602.775C875.929 668.987 839.586 729.435 791.238 779.565C742.89 829.696 683.797 868.202 618.41 892.185C616.45 892.905 614.48 893.609 612.5 894.295C569.233 909.42 523.943 917.972 478.14 919.665C471.647 919.905 465.153 920.009 458.66 919.975C446.4 919.929 434.157 919.392 421.93 918.365C409.703 917.339 397.463 915.822 385.21 913.815C368.348 911.028 351.655 907.299 335.21 902.645C326.343 900.139 317.56 897.355 308.86 894.295C281.249 884.623 254.631 872.323 229.37 857.565C222.35 853.479 215.443 849.199 208.65 844.725C197.317 837.259 186.317 829.295 175.65 820.835C172.023 817.955 168.437 815.022 164.89 812.035C154.39 803.189 144.3 793.879 134.62 784.105C132.44 781.919 130.287 779.705 128.16 777.465C120.747 769.699 113.613 761.675 106.76 753.395C105.11 751.395 103.49 749.395 101.88 747.395C98.3134 742.949 94.8334 738.429 91.4401 733.835C85.8401 726.282 80.4801 718.559 75.3601 710.665C67.9601 699.285 61.0767 687.592 54.7101 675.585C54.4201 675.035 54.1301 674.485 53.8501 673.935C47.5434 661.935 41.7901 649.692 36.5901 637.205C36.1301 636.125 35.6801 635.045 35.2401 633.955C30.7601 622.962 26.7167 611.805 23.1101 600.485C19.2501 588.385 15.9001 576.142 13.0601 563.755C10.4934 552.509 8.3434 541.175 6.61007 529.755C4.93007 518.615 3.66007 507.425 2.80007 496.185C2.72007 495.185 2.64007 494.085 2.57007 493.025C1.72341 480.805 1.36007 468.565 1.48007 456.305C1.60007 444.045 2.2034 431.802 3.29007 419.575C4.3834 407.275 5.97007 395.032 8.05007 382.845C9.83673 372.325 12.0001 361.875 14.5401 351.495C14.9801 349.695 15.4301 347.902 15.8901 346.115C19.0701 333.715 22.7734 321.475 27.0001 309.395C31.3534 296.949 36.2301 284.705 41.6301 272.665C45.6501 263.599 49.9934 254.679 54.6601 245.905C56.4401 242.555 58.2501 239.225 60.1201 235.905C62.5467 231.579 65.0501 227.289 67.6301 223.035C72.5501 214.922 77.7167 206.969 83.1301 199.175C85.7967 195.295 88.5501 191.455 91.3901 187.655C97.7834 179.029 104.473 170.629 111.46 162.455C116.84 156.155 122.39 150.002 128.11 143.995C134.11 137.735 140.247 131.645 146.52 125.725C149.527 122.892 152.57 120.109 155.65 117.375C158.73 114.642 161.793 111.992 164.84 109.425C176.607 99.5042 188.865 90.1824 201.57 81.4952C213.45 73.3686 225.693 65.8052 238.3 58.8052C240.187 57.7586 242.087 56.7219 244 55.6952C252.767 50.9752 261.693 46.5552 270.78 42.4352L275.01 40.5352C280.79 37.9752 286.623 35.5419 292.51 33.2352C306.886 27.5753 321.542 22.6523 336.42 18.4852C349.253 14.8852 362.23 11.8519 375.35 9.38522C386.203 7.34522 397.117 5.69855 408.09 4.44522L409.28 4.31523C419.02 3.23523 428.79 2.46189 438.59 1.99522C446.857 1.59522 455.127 1.42523 463.4 1.48523C470.22 1.48523 477.033 1.67189 483.84 2.04523C489.42 2.32523 494.993 2.70523 500.56 3.18523C505.227 3.58523 509.893 4.05856 514.56 4.60522C518.633 5.07189 522.69 5.60189 526.73 6.19522C530.483 6.73522 534.223 7.3219 537.95 7.95523C541.677 8.58856 545.373 9.25523 549.04 9.95523C550.32 10.1952 551.6 10.4552 552.88 10.7152C555.547 11.2686 558.213 11.8385 560.88 12.4252C565.45 13.4252 570 14.5252 574.53 15.6952C580.217 17.1352 585.883 18.6952 591.53 20.3752C598.863 22.5552 606.157 24.9252 613.41 27.4852C637.884 36.1185 661.576 46.8239 684.23 59.4852C724.309 81.8931 760.82 110.154 792.56 143.335C799.853 150.955 806.88 158.822 813.64 166.935C819.053 173.429 824.28 180.069 829.32 186.855C833.087 191.915 836.753 197.052 840.32 202.265C842.813 205.905 845.247 209.572 847.62 213.265C848.92 215.265 850.2 217.295 851.46 219.355C851.94 220.135 852.46 220.925 852.9 221.705C853.51 222.705 854.11 223.705 854.71 224.705C856.13 227.079 857.53 229.462 858.91 231.855C861.03 235.522 863.1 239.229 865.12 242.975C867.447 247.289 869.703 251.622 871.89 255.975C872.16 256.505 872.42 257.045 872.68 257.585C875.633 263.532 878.443 269.532 881.11 275.585C884.243 282.679 887.187 289.849 889.94 297.095C893.1 305.389 896.013 313.772 898.68 322.245C901.7 331.812 904.403 341.479 906.79 351.245C909.457 362.032 911.7 372.915 913.52 383.895C913.84 385.749 914.143 387.605 914.43 389.465C915.977 399.465 917.197 409.492 918.09 419.545C919.197 432.099 919.797 444.679 919.89 457.285C919.89 458.405 919.89 459.515 919.89 460.635C919.899 508.892 912.355 556.852 897.53 602.775Z" fill="#0F1502"/>
<path d="M893.37 430.555L893.28 429.265C892.567 419.265 891.507 409.265 890.1 399.265C890.04 398.865 889.99 398.465 889.93 398.065C888.597 388.685 886.93 379.352 884.93 370.065L884.69 368.955C882.87 360.455 880.787 352.022 878.44 343.655C878.34 343.305 878.25 342.955 878.15 342.655C877.95 341.965 877.76 341.275 877.56 340.595C875.56 333.775 873.423 327.009 871.15 320.295C871.04 319.965 870.93 319.645 870.81 319.295C868.57 312.782 866.167 306.335 863.6 299.955C863.47 299.645 863.35 299.325 863.22 299.015C861.007 293.555 858.693 288.142 856.28 282.775L855.86 281.865C854.007 277.785 852.09 273.742 850.11 269.735C849.97 269.435 849.82 269.135 849.67 268.835C848.09 265.635 846.47 262.462 844.81 259.315L844.33 258.395C843.397 256.622 842.447 254.862 841.48 253.115L840.94 252.115C840.67 251.615 840.4 251.115 840.12 250.635L839.55 249.635C839.17 248.945 838.78 248.255 838.39 247.575L837.85 246.575C836.59 244.369 835.307 242.172 834 239.985C833.84 239.695 833.66 239.405 833.49 239.115C831.05 235.002 828.533 230.932 825.94 226.905C825.76 226.625 825.58 226.335 825.39 226.055C822.01 220.809 818.52 215.635 814.92 210.535C814.71 210.235 814.5 209.935 814.28 209.645C809.493 202.905 804.517 196.302 799.35 189.835L798.54 188.835C791.36 179.915 783.833 171.275 775.96 162.915C775.55 162.485 775.14 162.045 774.71 161.615C735.151 119.904 687.631 86.5464 634.96 63.5152L633.24 62.7652C623.747 58.6519 614.127 54.8819 604.38 51.4552L603.07 50.9952C596.2 48.6052 589.26 46.3752 582.27 44.3552L581.12 44.0152C575.833 42.4685 570.5 41.0319 565.12 39.7052L564.06 39.4452C559.84 38.4052 555.603 37.4319 551.35 36.5252L550.35 36.3052C546.73 35.5385 543.103 34.8185 539.47 34.1452L538.47 33.9552C535.11 33.3452 531.75 32.7652 528.37 32.2352L527.37 32.0752C523.977 31.5418 520.58 31.0585 517.18 30.6252L516.18 30.4952C512.51 30.0052 508.81 29.5852 505.12 29.2052L504.12 29.1052C500.84 28.7752 497.54 28.4852 494.25 28.2352L491.38 28.0352L490.38 27.9652C485.28 27.6052 480.183 27.3519 475.09 27.2052H474.03C467.79 27.0252 461.557 26.9785 455.33 27.0652H454.22C446.66 27.1852 439.117 27.5185 431.59 28.0652L430.41 28.1452C421.537 28.7652 412.693 29.6619 403.88 30.8352L402.63 30.9952C397.15 31.7352 391.687 32.5819 386.24 33.5352L385.24 33.7052L384.24 33.8852C380.28 34.5919 376.33 35.3552 372.39 36.1752L371.04 36.4552C363.48 38.0419 355.97 39.8318 348.51 41.8252L347.51 42.0952C344.05 43.0285 340.607 44.0019 337.18 45.0152L335.71 45.4452C327.663 47.8452 319.687 50.4852 311.78 53.3652L310.78 53.7352C306.78 55.2085 302.78 56.7452 298.78 58.3452L297.18 58.9852C289.72 62.0052 282.35 65.2352 275.07 68.6752C274.74 68.8352 274.4 68.9852 274.07 69.1552C262.737 74.4885 251.653 80.3619 240.82 86.7752L239.13 87.7752L238.35 88.2352L237.35 88.8352L234.66 90.4352C223.327 97.3885 212.327 104.849 201.66 112.815L200.66 113.575C195.84 117.195 191.097 120.919 186.43 124.745L185.2 125.745C178.26 131.465 171.503 137.399 164.93 143.545C164.6 143.855 164.26 144.165 163.93 144.495C158.077 149.989 152.383 155.655 146.85 161.495C146.52 161.825 146.21 162.165 145.85 162.495C139.75 168.922 133.853 175.539 128.16 182.345L127.16 183.545C123.16 188.345 119.263 193.235 115.47 198.215C115.21 198.545 114.95 198.875 114.7 199.215C106.42 210.149 98.6666 221.452 91.4399 233.125C91.0999 233.665 90.7699 234.205 90.4399 234.745L90.3199 234.945C90.1099 235.275 89.9099 235.615 89.7099 235.945C82.6566 247.525 76.1632 259.435 70.2299 271.675C70.0599 272.005 69.8999 272.345 69.7399 272.675C68.6266 274.989 67.5366 277.322 66.4699 279.675C62.2099 288.955 58.2899 298.369 54.7099 307.915C54.6399 308.095 54.5699 308.265 54.5099 308.445C54.3799 308.775 54.2599 309.115 54.1399 309.445C54.0199 309.775 53.8499 310.235 53.7099 310.625C49.5232 321.959 45.8332 333.472 42.6399 345.165C42.5399 345.495 42.4499 345.835 42.3599 346.165C39.1399 357.952 36.4332 369.862 34.2399 381.895C34.1699 382.225 34.1099 382.565 34.0499 382.895C31.9032 394.722 30.2366 406.632 29.0499 418.625C29.0499 418.955 28.9799 419.295 28.9499 419.625C27.8099 431.505 27.1632 443.415 27.0099 455.355C27.0099 455.685 27.0099 456.025 27.0099 456.355C26.8699 468.595 27.2466 480.835 28.1399 493.075C28.1399 493.405 28.1899 493.745 28.2199 494.075C29.1066 506.029 30.4999 517.939 32.3999 529.805C32.4499 530.135 32.4999 530.475 32.5599 530.805C33.4732 536.539 34.5132 542.255 35.6799 547.955C36.7599 553.289 37.9432 558.572 39.2299 563.805C39.3099 564.135 39.3899 564.475 39.4799 564.805C42.4532 576.879 45.9532 588.789 49.9799 600.535L50.3199 601.535C51.3999 604.695 52.5266 607.845 53.6999 610.985C54.0299 611.885 54.3599 612.775 54.6999 613.665C57.7066 621.625 60.9466 629.489 64.4199 637.255L64.8699 638.255C70.3499 650.435 76.3866 662.345 82.9799 673.985L83.5499 674.985C85.7699 678.905 88.0632 682.795 90.4299 686.655L91.4299 688.295C96.1299 695.915 101.063 703.388 106.23 710.715L106.94 711.715C113.34 720.735 120.077 729.502 127.15 738.015C127.48 738.425 127.81 738.825 128.15 739.225C130.463 741.998 132.813 744.739 135.2 747.445C135.49 747.785 135.79 748.115 136.09 748.445C144.15 757.579 152.607 766.365 161.46 774.805L163.88 777.095L164.88 778.035C167.11 780.105 169.35 782.165 171.62 784.165C171.99 784.505 172.37 784.835 172.75 785.165C181.717 793.165 191.003 800.752 200.61 807.925L201.61 808.675C207.27 812.895 213.033 816.969 218.9 820.895L220.41 821.895C225.97 825.609 231.613 829.178 237.34 832.605L238.34 833.215C249.94 840.155 261.847 846.539 274.06 852.365L275.06 852.845C278.507 854.485 281.983 856.078 285.49 857.625L287.76 858.625C295.34 861.958 303.007 865.049 310.76 867.895L311.76 868.265C323.493 872.565 335.403 876.355 347.49 879.635L348.49 879.905C360.27 883.065 372.18 885.732 384.22 887.905L385.22 888.085C388.06 888.585 390.907 889.055 393.76 889.495C399.86 890.435 405.973 891.242 412.1 891.915L414.1 892.135C416.367 892.375 418.64 892.595 420.92 892.795L421.92 892.885C430.587 893.652 439.253 894.159 447.92 894.405C450.98 894.499 454.047 894.555 457.12 894.575H460.66C464.76 894.575 468.857 894.509 472.95 894.375C500.713 893.54 528.334 890.067 555.44 884.005L556.53 883.765C582.054 877.99 607.007 869.934 631.09 859.695L632.09 859.265C660.667 847.046 687.827 831.749 713.09 813.645C773.382 770.281 821.652 712.293 853.36 645.135C853.72 644.375 854.08 643.615 854.43 642.845C859.163 632.665 863.497 622.295 867.43 611.735L867.66 611.115C867.95 610.325 868.24 609.535 868.52 608.745C873.695 594.492 878.101 579.971 881.72 565.245C881.81 564.905 881.89 564.565 881.97 564.245C888.189 538.796 892.101 512.837 893.66 486.685L893.72 485.685C894.759 467.319 894.642 448.906 893.37 430.555ZM892.24 484.885C892.24 485.575 892.18 486.255 892.13 486.945C890.92 507.545 888.23 528.031 884.08 548.245C883.033 553.365 881.883 558.462 880.63 563.535C880.47 564.205 880.31 564.875 880.13 565.535C876.797 579.002 872.797 592.265 868.13 605.325C867.63 606.735 867.13 608.135 866.6 609.545C862.413 620.945 857.747 632.148 852.6 643.155C851.933 644.488 851.29 645.842 850.67 647.215C805.596 741.395 727.989 816.101 632.16 857.555L630.16 858.425C606.449 868.57 581.873 876.562 556.73 882.305C556.02 882.465 555.31 882.635 554.59 882.785C545.783 884.745 536.91 886.412 527.97 887.785C506.005 891.173 483.815 892.898 461.59 892.945H457.66C446.053 892.845 434.477 892.282 422.93 891.255L421.93 891.165L420.93 891.065C418.43 890.832 415.937 890.579 413.45 890.305C412.19 890.175 410.94 890.025 409.69 889.875C401.83 888.935 394.003 887.782 386.21 886.415L385.21 886.245L384.21 886.065C372.53 883.958 360.953 881.382 349.48 878.335L348.48 878.075L347.48 877.805C335.747 874.639 324.17 870.972 312.75 866.805L311.75 866.445L310.75 866.075C304.31 863.715 297.927 861.195 291.6 858.515L289.26 857.515L286.97 856.515C283.29 854.925 279.65 853.265 276.02 851.515L275.02 851.045L274.02 850.565C262.187 844.925 250.613 838.739 239.3 832.005C238.96 831.815 238.63 831.615 238.3 831.415L237.3 830.805C232.453 827.892 227.66 824.872 222.92 821.745C222.41 821.415 221.92 821.085 221.4 820.745L219.9 819.745C216.63 817.565 213.4 815.315 210.19 813.035C207.63 811.202 205.09 809.349 202.57 807.475C202.23 807.235 201.9 806.985 201.57 806.735L200.57 805.975C191.75 799.308 183.203 792.308 174.93 784.975L173.79 783.975L172.68 782.975C170.367 780.909 168.087 778.819 165.84 776.705L164.84 775.775L163.84 774.825C154.86 766.439 146.267 757.625 138.06 748.385L137.17 747.385C136.88 747.055 136.58 746.725 136.29 746.385C133.857 743.625 131.463 740.835 129.11 738.015L128.11 736.815C127.77 736.415 127.44 736.005 127.11 735.595C120.697 727.835 114.57 719.855 108.73 711.655L108.01 710.655C107.77 710.325 107.54 709.985 107.31 709.655C102.11 702.322 97.1366 694.795 92.3899 687.075C92.0499 686.535 91.7199 685.995 91.3899 685.455L90.3899 683.805C88.6199 680.865 86.8699 677.905 85.1699 674.925L84.5999 673.925C84.4099 673.595 84.2199 673.265 84.0399 672.925C77.6399 661.638 71.7666 650.062 66.4199 638.195C66.2599 637.865 66.1099 637.525 65.9599 637.195L65.5099 636.195C61.9832 628.295 58.6999 620.295 55.6599 612.195C55.5499 611.925 55.4499 611.645 55.3499 611.375C55.1199 610.745 54.8799 610.115 54.6599 609.485C54.3199 608.565 53.9899 607.635 53.6599 606.705C53.0399 604.985 52.4332 603.255 51.8399 601.515C51.7199 601.185 51.5999 600.845 51.4899 600.515C51.3799 600.185 51.2599 599.845 51.1599 599.515C47.2732 588.082 43.8966 576.505 41.0299 564.785C40.9399 564.455 40.8599 564.115 40.7799 563.785L40.5399 562.785C37.9799 552.215 35.8399 541.525 34.0999 530.785C34.0399 530.455 33.9799 530.115 33.9299 529.785C33.8799 529.455 33.8199 529.115 33.7699 528.785C31.9366 517.279 30.5832 505.702 29.7099 494.055C29.7099 493.725 29.6499 493.385 29.6299 493.055C29.6099 492.725 29.5799 492.385 29.5599 492.055C28.7199 480.509 28.3499 468.935 28.4499 457.335C28.4499 457.005 28.4499 456.665 28.4499 456.335C28.4499 456.005 28.4499 455.665 28.4499 455.335C28.5699 443.749 29.1632 432.172 30.2299 420.605L30.3199 419.605C30.3199 419.275 30.3799 418.935 30.4199 418.605C31.5399 406.965 33.1332 395.389 35.1999 383.875L35.3799 382.875C35.4399 382.545 35.4999 382.205 35.5699 381.875C37.7099 370.202 40.3399 358.625 43.4599 347.145L43.7299 346.145C43.8199 345.815 43.9099 345.475 44.0099 345.145C44.3199 344.025 44.6299 342.915 44.9499 341.795C47.5499 332.715 50.4466 323.739 53.6399 314.865C53.9699 313.945 54.2999 313.025 54.6399 312.105C54.8499 311.545 55.0499 310.985 55.2699 310.425C55.3899 310.095 55.5099 309.755 55.6399 309.425C55.7699 309.095 55.8899 308.755 56.0199 308.425C60.4732 296.625 65.4432 285.049 70.9299 273.695L71.4099 272.695C71.5699 272.365 71.7299 272.025 71.8999 271.695C77.5399 260.122 83.6966 248.829 90.3699 237.815L90.8799 236.965L91.3699 236.155C91.4026 236.088 91.4429 236.024 91.4899 235.965L92.1099 234.965C92.1899 234.825 92.2799 234.685 92.3699 234.545C99.6299 222.745 107.45 211.309 115.83 200.235L116.58 199.235L117.35 198.235C120.51 194.089 123.757 189.999 127.09 185.965C127.42 185.555 127.75 185.145 128.09 184.745L129.09 183.545C134.81 176.685 140.747 170.019 146.9 163.545C147.21 163.205 147.52 162.875 147.84 162.545C148.16 162.215 148.48 161.875 148.84 161.545C153.713 156.445 158.713 151.465 163.84 146.605L164.84 145.605L165.84 144.675C171.94 138.962 178.203 133.432 184.63 128.085C185.16 127.645 185.69 127.195 186.23 126.765L187.44 125.765L188.68 124.765C192.58 121.585 196.543 118.485 200.57 115.465L201.57 114.705C201.9 114.455 202.23 114.205 202.57 113.965C213.77 105.619 225.347 97.8452 237.3 90.6452L238.3 90.0352C238.63 89.8352 238.96 89.6352 239.3 89.4452L240.45 88.7652C241.59 88.0852 242.73 87.4152 243.87 86.7652C253.73 81.0852 263.78 75.7752 274.02 70.8352L275.02 70.3552L276.02 69.8852C283.273 66.4585 290.607 63.2352 298.02 60.2152L299.61 59.5752L301.19 58.9452C304.35 57.6852 307.523 56.4685 310.71 55.2952L311.71 54.9252L312.71 54.5652C320.463 51.7252 328.287 49.1219 336.18 46.7552L337.64 46.3152L339.08 45.8952C341.85 45.0752 344.64 44.2852 347.43 43.5352L348.43 43.2552L349.43 42.9952C356.63 41.0752 363.877 39.3419 371.17 37.7952L372.49 37.5152L373.82 37.2452C377.26 36.5385 380.707 35.8719 384.16 35.2452L385.16 35.0652L386.16 34.8952C391.613 33.9485 397.08 33.1052 402.56 32.3652L403.78 32.1952L405.02 32.0352C412.353 31.0752 419.687 30.3185 427.02 29.7652L430.11 29.5452L431.29 29.4652L432.46 29.3852C439.55 28.9252 446.66 28.6552 453.75 28.5652H454.86H455.96C461.767 28.5052 467.567 28.5685 473.36 28.7552H474.42H475.48C480.18 28.9152 484.873 29.1585 489.56 29.4852L490.56 29.5552L491.56 29.6352C495.43 29.9052 499.29 30.2452 503.14 30.6352L504.14 30.7352L505.14 30.8452C508.47 31.1852 511.79 31.5752 515.14 31.9952L516.14 32.1252L517.14 32.2552C520.2 32.6552 523.26 33.1052 526.3 33.5752L527.3 33.7252L528.3 33.8852C531.347 34.3652 534.387 34.8819 537.42 35.4352L538.42 35.6152L539.42 35.7952C542.74 36.4052 546.05 37.0652 549.36 37.7952L550.36 38.0152L551.36 38.2352C555.3 39.0752 559.23 39.9652 563.15 40.9352L564.21 41.1952L565.28 41.4652C570.32 42.7052 575.34 44.0385 580.34 45.4652L581.49 45.7952L582.66 46.1452C589.327 48.0852 595.933 50.1952 602.48 52.4752L603.79 52.9252L605.13 53.3952C614.497 56.7285 623.75 60.3652 632.89 64.3052C633.47 64.5452 634.04 64.8052 634.62 65.0552L636.4 65.8452C653.179 73.2754 669.457 81.7901 685.13 91.3352C716.924 110.73 746.081 134.146 771.88 161.005C772.31 161.445 772.74 161.885 773.16 162.335L774.4 163.645C782.073 171.745 789.407 180.132 796.4 188.805L797.24 189.805C797.51 190.145 797.79 190.485 798.05 190.805C803.05 197.039 807.867 203.405 812.5 209.905L813.15 210.805C813.36 211.105 813.58 211.405 813.79 211.715C817.25 216.609 820.583 221.572 823.79 226.605L824.35 227.455L824.9 228.315C827.187 231.875 829.417 235.472 831.59 239.105L832.11 239.965L832.62 240.835C833.81 242.835 834.97 244.835 836.12 246.835L836.66 247.775L837.19 248.715L837.91 249.995C838.11 250.335 838.3 250.675 838.49 250.995L839.06 251.995L839.25 252.345C839.43 252.675 839.62 253.005 839.8 253.345C839.98 253.685 840.17 254.015 840.34 254.345C841.08 255.685 841.8 257.025 842.52 258.345L843.01 259.265C843.17 259.575 843.34 259.885 843.49 260.205C844.95 262.965 846.373 265.749 847.76 268.555L848.21 269.455C848.36 269.755 848.51 270.055 848.65 270.365C850.043 273.179 851.397 276.005 852.71 278.845C853.24 279.975 853.71 281.115 854.27 282.255L854.68 283.175C854.82 283.475 854.95 283.785 855.08 284.085C857.333 289.085 859.473 294.129 861.5 299.215C861.63 299.525 861.76 299.835 861.88 300.145C862 300.455 862.13 300.765 862.25 301.085C864.63 307.085 866.863 313.139 868.95 319.245C869.07 319.575 869.18 319.895 869.29 320.245L869.62 321.245C872 328.219 874.187 335.252 876.18 342.345C876.28 342.685 876.37 343.035 876.47 343.345C876.57 343.655 876.66 344.035 876.75 344.345C878.963 352.265 880.933 360.265 882.66 368.345L882.9 369.445C882.98 369.815 883.06 370.175 883.13 370.545C885.01 379.352 886.6 388.209 887.9 397.115C887.97 397.505 888.02 397.905 888.08 398.295C888.14 398.685 888.19 399.085 888.25 399.475C889.583 408.935 890.613 418.439 891.34 427.985C891.34 428.405 891.41 428.835 891.44 429.255L891.53 430.535C892.903 448.619 893.14 466.772 892.24 484.885Z" fill="#0F1502"/>
<path d="M839.141 107.245C823.983 111.189 810.153 119.108 799.079 130.183C788.004 141.258 780.085 155.088 776.141 170.245C772.196 155.088 764.278 141.258 753.203 130.183C742.128 119.108 728.298 111.189 713.141 107.245C728.298 103.3 742.128 95.3818 753.203 84.307C764.278 73.2321 772.196 59.4022 776.141 44.2449C780.085 59.4022 788.004 73.2321 799.079 84.307C810.153 95.3818 823.983 103.3 839.141 107.245Z" fill="#FFB32D"/>
<path d="M221.141 799.245C205.983 803.189 192.153 811.108 181.079 822.183C170.004 833.258 162.085 847.088 158.141 862.245C154.196 847.088 146.278 833.258 135.203 822.183C124.128 811.108 110.298 803.189 95.1406 799.245C110.298 795.3 124.128 787.382 135.203 776.307C146.278 765.232 154.196 751.402 158.141 736.245C162.085 751.402 170.004 765.232 181.079 776.307C192.153 787.382 205.983 795.3 221.141 799.245Z" fill="#FFB32D"/>
<path d="M838.94 106.505C823.662 110.48 809.722 118.461 798.559 129.624C787.397 140.787 779.416 154.727 775.44 170.005H776.88C772.905 154.727 764.924 140.787 753.761 129.624C742.599 118.461 728.658 110.48 713.38 106.505V107.945C728.658 103.97 742.599 95.9887 753.761 84.8259C764.924 73.663 772.905 59.7229 776.88 44.4449H775.44C779.416 59.7229 787.397 73.663 798.559 84.8259C809.722 95.9887 823.662 103.97 838.94 107.945C839.125 107.98 839.316 107.944 839.475 107.844C839.635 107.745 839.751 107.589 839.801 107.408C839.852 107.228 839.832 107.034 839.747 106.867C839.661 106.7 839.516 106.57 839.34 106.505C824.313 102.594 810.602 94.743 799.622 83.7631C788.642 72.7832 780.792 59.0721 776.88 44.0449C776.835 43.8891 776.74 43.7522 776.61 43.6549C776.481 43.5575 776.323 43.5049 776.16 43.5049C775.998 43.5049 775.84 43.5575 775.71 43.6549C775.581 43.7522 775.486 43.8891 775.44 44.0449C771.529 59.0721 763.678 72.7832 752.699 83.7631C741.719 94.743 728.008 102.594 712.98 106.505C712.825 106.55 712.688 106.645 712.59 106.775C712.493 106.905 712.44 107.063 712.44 107.225C712.44 107.387 712.493 107.545 712.59 107.675C712.688 107.805 712.825 107.899 712.98 107.945C728.008 111.856 741.719 119.707 752.699 130.687C763.678 141.667 771.529 155.378 775.44 170.405C775.486 170.561 775.581 170.697 775.71 170.795C775.84 170.892 775.998 170.945 776.16 170.945C776.323 170.945 776.481 170.892 776.61 170.795C776.74 170.697 776.835 170.561 776.88 170.405C780.792 155.378 788.642 141.667 799.622 130.687C810.602 119.707 824.313 111.856 839.34 107.945C839.516 107.879 839.661 107.75 839.747 107.583C839.832 107.416 839.852 107.222 839.801 107.041C839.751 106.86 839.635 106.705 839.475 106.605C839.316 106.506 839.125 106.47 838.94 106.505Z" fill="#0F1502"/>
<path d="M860.141 190.725C849.194 193.577 839.208 199.3 831.212 207.302C823.217 215.304 817.503 225.296 814.661 236.245C811.812 225.303 806.095 215.32 798.1 207.325C790.105 199.33 780.122 193.614 769.181 190.765C780.127 187.913 790.114 182.19 798.109 174.188C806.104 166.185 811.818 156.194 814.661 145.245C817.509 156.186 823.226 166.17 831.221 174.164C839.216 182.159 849.199 187.876 860.141 190.725Z" fill="#7999FF"/>
<path d="M859.94 190.005C848.873 192.886 838.776 198.668 830.689 206.754C822.603 214.84 816.821 224.938 813.94 236.005H815.38C812.5 224.938 806.718 214.84 798.631 206.754C790.545 198.668 780.447 192.886 769.38 190.005V191.445C780.447 188.564 790.545 182.782 798.631 174.696C806.718 166.61 812.5 156.512 815.38 145.445H813.94C816.821 156.512 822.603 166.61 830.689 174.696C838.776 182.782 848.873 188.564 859.94 191.445C860.125 191.479 860.316 191.444 860.475 191.344C860.635 191.245 860.751 191.089 860.801 190.908C860.852 190.727 860.832 190.534 860.747 190.367C860.661 190.2 860.516 190.07 860.34 190.005C849.512 187.191 839.632 181.536 831.72 173.625C823.809 165.714 818.154 155.833 815.34 145.005C815.295 144.849 815.2 144.712 815.07 144.615C814.94 144.517 814.783 144.465 814.62 144.465C814.458 144.465 814.3 144.517 814.17 144.615C814.041 144.712 813.946 144.849 813.9 145.005C811.086 155.833 805.431 165.714 797.52 173.625C789.609 181.536 779.729 187.191 768.9 190.005C768.745 190.05 768.608 190.145 768.51 190.275C768.413 190.405 768.36 190.563 768.36 190.725C768.36 190.887 768.413 191.045 768.51 191.175C768.608 191.305 768.745 191.399 768.9 191.445C779.729 194.259 789.609 199.914 797.52 207.825C805.431 215.736 811.086 225.616 813.9 236.445C813.946 236.601 814.041 236.737 814.17 236.835C814.3 236.932 814.458 236.985 814.62 236.985C814.783 236.985 814.94 236.932 815.07 236.835C815.2 236.737 815.295 236.601 815.34 236.445C818.154 225.616 823.809 215.736 831.72 207.825C839.632 199.914 849.512 194.259 860.34 191.445C860.516 191.379 860.661 191.25 860.747 191.083C860.832 190.915 860.852 190.722 860.801 190.541C860.751 190.36 860.635 190.205 860.475 190.105C860.316 190.006 860.125 189.97 859.94 190.005Z" fill="#0F1502"/>
<path d="M908.22 143.019C900.703 144.973 893.844 148.898 888.352 154.391C882.859 159.883 878.934 166.742 876.98 174.259C875.027 166.742 871.101 159.883 865.609 154.391C860.117 148.898 853.258 144.973 845.74 143.019C853.258 141.066 860.117 137.14 865.609 131.648C871.101 126.156 875.027 119.297 876.98 111.779C878.934 119.297 882.859 126.156 888.352 131.648C893.844 137.14 900.703 141.066 908.22 143.019Z" fill="#FF7070"/>
<path d="M908.02 142.3C900.37 144.28 893.389 148.269 887.798 153.852C882.207 159.436 878.21 166.413 876.22 174.06H877.66C875.674 166.418 871.682 159.444 866.099 153.861C860.516 148.278 853.542 144.286 845.9 142.3V143.74C853.542 141.754 860.516 137.762 866.099 132.179C871.682 126.596 875.674 119.622 877.66 111.98H876.22C878.206 119.622 882.197 126.596 887.781 132.179C893.364 137.762 900.338 141.754 907.98 143.74C908.165 143.775 908.355 143.739 908.515 143.639C908.674 143.54 908.791 143.385 908.841 143.204C908.891 143.023 908.872 142.829 908.786 142.662C908.701 142.495 908.556 142.366 908.38 142.3C901.008 140.334 894.287 136.453 888.899 131.051C883.51 125.648 879.647 118.917 877.7 111.54C877.655 111.384 877.56 111.247 877.43 111.15C877.3 111.053 877.142 111 876.98 111C876.818 111 876.66 111.053 876.53 111.15C876.4 111.247 876.305 111.384 876.26 111.54C874.303 118.915 870.431 125.641 865.036 131.036C859.641 136.431 852.915 140.303 845.54 142.26C845.384 142.305 845.247 142.4 845.15 142.53C845.053 142.66 845 142.818 845 142.98C845 143.142 845.053 143.3 845.15 143.43C845.247 143.56 845.384 143.655 845.54 143.7C852.912 145.666 859.633 149.547 865.021 154.949C870.409 160.352 874.273 167.083 876.22 174.46C876.265 174.616 876.36 174.753 876.49 174.85C876.62 174.947 876.778 175 876.94 175C877.102 175 877.26 174.947 877.39 174.85C877.52 174.753 877.615 174.616 877.66 174.46C879.617 167.085 883.489 160.359 888.884 154.964C894.279 149.569 901.005 145.697 908.38 143.74C908.547 143.672 908.683 143.545 908.764 143.385C908.846 143.224 908.866 143.039 908.823 142.864C908.779 142.69 908.674 142.536 908.526 142.433C908.379 142.329 908.199 142.282 908.02 142.3Z" fill="#0F1502"/>
<path d="M220.94 798.505C205.662 802.48 191.722 810.461 180.559 821.624C169.397 832.787 161.416 846.727 157.44 862.005H158.88C154.905 846.727 146.924 832.787 135.761 821.624C124.599 810.461 110.658 802.48 95.3804 798.505V799.945C110.658 795.97 124.599 787.989 135.761 776.826C146.924 765.663 154.905 751.723 158.88 736.445H157.44C161.416 751.723 169.397 765.663 180.559 776.826C191.722 787.989 205.662 795.97 220.94 799.945C221.125 799.979 221.316 799.944 221.475 799.844C221.635 799.745 221.751 799.589 221.801 799.408C221.852 799.227 221.832 799.034 221.747 798.867C221.661 798.7 221.516 798.57 221.34 798.505C206.313 794.594 192.602 786.743 181.622 775.763C170.642 764.783 162.792 751.072 158.88 736.045C158.835 735.889 158.74 735.752 158.61 735.655C158.481 735.557 158.323 735.505 158.16 735.505C157.998 735.505 157.84 735.557 157.71 735.655C157.581 735.752 157.486 735.889 157.44 736.045C153.529 751.072 145.679 764.783 134.699 775.763C123.719 786.743 110.008 794.594 94.9804 798.505C94.8247 798.55 94.6878 798.645 94.5904 798.775C94.4931 798.905 94.4404 799.063 94.4404 799.225C94.4404 799.387 94.4931 799.545 94.5904 799.675C94.6878 799.805 94.8247 799.899 94.9804 799.945C110.008 803.856 123.719 811.707 134.699 822.687C145.679 833.667 153.529 847.378 157.44 862.405C157.486 862.561 157.581 862.698 157.71 862.795C157.84 862.892 157.998 862.945 158.16 862.945C158.323 862.945 158.481 862.892 158.61 862.795C158.74 862.698 158.835 862.561 158.88 862.405C162.792 847.378 170.642 833.667 181.622 822.687C192.602 811.707 206.313 803.856 221.34 799.945C221.516 799.879 221.661 799.75 221.747 799.583C221.832 799.415 221.852 799.222 221.801 799.041C221.751 798.86 221.635 798.705 221.475 798.605C221.316 798.506 221.125 798.47 220.94 798.505Z" fill="#0F1502"/>
<path d="M392.11 25.2015C389.79 27.5015 385.69 27.3515 382.53 27.6915H382.37H382.02H381.91C354.561 31.5064 327.683 38.1555 301.71 47.5315C295.49 49.7915 289.34 52.2215 283.23 54.7515H283.18L283.02 54.8215L282.84 54.9015C257.192 65.8256 232.701 79.2858 209.73 95.0815C203.403 99.5081 197.187 104.055 191.08 108.721L190.9 108.861L190.66 109.041L190.45 109.211H190.4C167.449 127.161 146.282 147.281 127.19 169.291C122.03 175.291 117.03 181.408 112.19 187.641L112.07 187.791L111.95 187.951L111.88 188.031L111.76 188.201C93.4651 212.064 77.5492 237.659 64.2401 264.621C60.4201 272.375 56.8268 280.228 53.4601 288.181L53.3701 288.391L53.3001 288.551C53.3001 288.551 53.3001 288.661 53.3001 288.711C49.3001 298.711 45.3001 308.711 41.8801 318.891C38.1335 329.971 34.8168 341.181 31.9301 352.521C29.0435 363.861 26.5901 375.361 24.5701 387.021C24.0501 390.021 23.5701 392.951 23.1101 395.921C22.7501 398.291 22.9701 401.781 21.0401 403.491C20.2639 404.141 19.3378 404.586 18.346 404.787C17.3541 404.988 16.3278 404.938 15.3601 404.641C12.8501 403.771 12.0001 401.041 12.1901 398.641C12.6601 392.581 14.0201 386.431 15.1101 380.451C16.1501 374.758 17.2968 369.091 18.5501 363.451C21.1101 351.911 24.1101 340.481 27.5501 329.161C34.3957 306.739 42.9198 284.864 53.0501 263.721C73.067 222.026 99.2658 183.593 130.76 149.721C162.006 116.018 198.365 87.4444 238.5 65.0515C279.512 42.206 324.173 26.6422 370.5 19.0515C376.38 18.0981 382.28 17.2748 388.2 16.5815C392.56 16.2115 395.18 22.1515 392.11 25.2015Z" fill="#F5D16C"/>
<path d="M412.85 19.9215C412.625 21.1496 411.982 22.2621 411.031 23.0711C410.08 23.8801 408.879 24.3359 407.63 24.3615C406.574 24.3474 405.546 24.0154 404.681 23.409C403.816 22.8026 403.154 21.9497 402.78 20.9615C402.364 19.9652 402.281 18.8609 402.544 17.8136C402.807 16.7663 403.402 15.8324 404.24 15.1515C405.069 14.4336 406.102 13.9959 407.194 13.9007C408.286 13.8055 409.38 14.0578 410.32 14.6215C411.194 15.1815 411.894 15.9745 412.341 16.9109C412.788 17.8474 412.964 18.8901 412.85 19.9215Z" fill="#F5D16C"/>
<path d="M388.41 14.9615H388.24C340.285 20.6863 293.72 34.8513 250.7 56.8015C208.568 78.4186 170.245 106.764 137.24 140.721C69.9715 209.783 25.9702 298.142 11.3902 393.441C10.8202 397.221 9.54015 401.971 12.8602 404.911C15.2802 407.061 19.2502 406.761 21.7202 404.841C23.3402 403.571 23.7202 401.981 23.9602 400.031C24.4335 396.811 24.9368 393.595 25.4702 390.381C26.4635 384.461 27.5668 378.558 28.7802 372.671C33.6921 349.004 40.4768 325.764 49.0702 303.171C50.8402 298.511 52.7902 293.931 54.6102 289.301L54.7502 288.971C66.6999 260.787 81.44 233.87 98.7502 208.621C103.29 202.015 108.003 195.528 112.89 189.161V189.111L112.96 189.011L113.15 188.771C131.033 165.718 151.128 144.47 173.15 125.331C179.15 120.131 185.29 115.131 191.52 110.241L191.76 110.051L191.89 109.951C213.746 93.1333 237.19 78.4873 261.89 66.2215C268.91 62.7415 276.033 59.4681 283.26 56.4015L283.49 56.3115C308.024 46.0808 333.503 38.2834 359.56 33.0315C367.08 31.5415 374.63 30.3015 382.23 29.2315C386.46 28.6515 392.79 28.9215 394.52 23.9715C396.08 19.8715 392.79 14.8415 388.41 14.9615ZM392.11 25.2015C389.79 27.5015 385.69 27.3515 382.53 27.6915H382.37H382.02H381.91C354.561 31.5064 327.683 38.1555 301.71 47.5315C295.49 49.7915 289.34 52.2215 283.23 54.7515H283.18L283.02 54.8215L282.84 54.9015C257.192 65.8256 232.701 79.2858 209.73 95.0815C203.403 99.5081 197.187 104.055 191.08 108.721L190.9 108.861L190.66 109.041L190.45 109.211H190.4C167.449 127.161 146.282 147.281 127.19 169.291C122.03 175.291 117.03 181.408 112.19 187.641L112.07 187.791L111.95 187.951L111.88 188.031L111.76 188.201C93.4651 212.064 77.5492 237.659 64.2402 264.621C60.4202 272.375 56.8268 280.228 53.4602 288.181L53.3702 288.391L53.3002 288.551C53.3002 288.551 53.3002 288.661 53.3002 288.711C49.3002 298.711 45.3002 308.711 41.8802 318.891C38.1335 329.971 34.8168 341.181 31.9302 352.521C29.0435 363.861 26.5902 375.361 24.5702 387.021C24.0502 390.021 23.5702 392.951 23.1102 395.921C22.7502 398.291 22.9702 401.781 21.0402 403.491C20.2639 404.141 19.3379 404.586 18.346 404.787C17.3541 404.988 16.3278 404.938 15.3602 404.641C12.8502 403.771 12.0002 401.041 12.1902 398.641C12.6602 392.581 14.0202 386.431 15.1102 380.451C16.1502 374.758 17.2968 369.091 18.5502 363.451C21.1102 351.911 24.1102 340.481 27.5502 329.161C34.3957 306.739 42.9198 284.864 53.0502 263.721C73.0671 222.026 99.2658 183.593 130.76 149.721C162.006 116.018 198.365 87.4444 238.5 65.0515C279.512 42.206 324.173 26.6422 370.5 19.0515C376.38 18.0981 382.28 17.2748 388.2 16.5815C392.56 16.2115 395.18 22.1515 392.11 25.2015Z" fill="#0F1502"/>
<path d="M411.86 13.8915C410.785 13.0123 409.463 12.4907 408.077 12.3992C406.691 12.3078 405.311 12.6512 404.13 13.3815C402.925 14.1071 401.984 15.1994 401.444 16.4985C400.904 17.7976 400.794 19.2354 401.13 20.6015C401.484 22.0712 402.313 23.3833 403.488 24.3342C404.663 25.2852 406.119 25.822 407.63 25.8615H407.69C409.096 25.8288 410.46 25.3734 411.603 24.5547C412.746 23.736 413.616 22.5919 414.1 21.2715C414.491 19.9571 414.486 18.5571 414.088 17.2452C413.69 15.9332 412.915 14.7671 411.86 13.8915ZM412.86 19.8915C412.635 21.1196 411.992 22.2322 411.041 23.0411C410.09 23.8501 408.889 24.3059 407.64 24.3315C406.584 24.3173 405.556 23.9854 404.691 23.379C403.826 22.7726 403.164 21.9197 402.79 20.9315C402.374 19.9352 402.291 18.8309 402.554 17.7836C402.817 16.7363 403.412 15.8024 404.25 15.1215C405.079 14.4036 406.112 13.9659 407.204 13.8707C408.296 13.7755 409.39 14.0278 410.33 14.5915C411.207 15.1552 411.908 15.9535 412.353 16.8957C412.799 17.838 412.971 18.8863 412.85 19.9215L412.86 19.8915Z" fill="#0F1502"/>
</g>
<defs>
<clipPath id="clip0_218_247">
<rect width="921.49" height="921.39" fill="white"/>
</clipPath>
</defs>
</svg>
