<svg width="19" height="20" viewBox="0 0 19 20" fill="none" xmlns="http://www.w3.org/2000/svg">
<path d="M9.5 19.5C14.4706 19.5 18 14.7568 18 10C18 5.24324 14.4706 0.5 9.5 0.5C4.52937 0.5 0.5 4.35467 0.5 9.74324C0.5 15.1317 4.52937 19.5 9.5 19.5Z" fill="#E6DBB8"/>
<path d="M18.4266 8.64811C18.3776 6.83311 17.7686 5.07812 16.6826 3.62412C15.5966 2.16912 14.0876 1.08612 12.3626 0.524116C10.5776 -0.0888838 8.65261 -0.165869 6.82461 0.302131C4.99661 0.769131 3.34461 1.76114 2.07261 3.15614C1.29061 4.05114 0.707611 5.10312 0.361611 6.24012C0.016611 7.37812 -0.0833812 8.57611 0.0696188 9.75611C-0.171381 11.7141 0.259611 13.6961 1.29261 15.3781C2.32461 17.0591 3.89762 18.3401 5.75262 19.0101C7.64762 19.7301 9.72061 19.8341 11.6786 19.3081C13.6356 18.7821 15.3776 17.6521 16.6566 16.0801C17.3446 15.1931 17.8466 14.1781 18.1336 13.0931C18.4206 12.0091 18.4866 10.8781 18.3266 9.76713C18.3876 9.39713 18.4206 9.02311 18.4266 8.64811ZM12.2216 18.2371C10.5476 18.8441 8.72762 18.9281 7.00462 18.4781C5.28062 18.0281 3.73462 17.0651 2.57162 15.7161C1.85662 14.8531 1.34762 13.8391 1.08262 12.7511C1.14162 12.8561 1.19961 12.9621 1.26461 13.0671C2.30661 14.6251 3.78361 15.8421 5.51261 16.5681C7.24061 17.2931 9.14362 17.4941 10.9856 17.1461C12.3076 16.9091 13.5616 16.3851 14.6586 15.6101C15.7566 14.8351 16.6706 13.8291 17.3366 12.6631C17.0066 13.9401 16.3676 15.1171 15.4756 16.0891C14.5836 17.0611 13.4656 17.7991 12.2216 18.2371ZM11.9346 15.9861C10.3366 16.5071 8.62262 16.5581 6.99662 16.1341C5.37062 15.7101 3.89961 14.8291 2.75861 13.5951C1.68461 12.3891 1.03061 10.8671 0.897606 9.25813C0.764606 7.64813 1.15861 6.04011 2.02061 4.67411C2.96261 3.28211 4.29061 2.19411 5.84061 1.54511C7.39161 0.895112 9.09762 0.712128 10.7506 1.01713C14.4896 1.67913 17.5006 4.77412 17.5476 8.63612C17.4976 10.2931 16.9286 11.8931 15.9216 13.2091C14.9146 14.5261 13.5206 15.4931 11.9346 15.9741V15.9861Z" fill="#0F1502"/>
<path d="M7 4.94H8.32501V13.515H10.399V3H7V4.94Z" fill="#0F1502"/>
</svg>
